<mxfile host="app.diagrams.net" agent="Mozilla/5.0 (X11; Ubuntu; Linux x86_64; rv:135.0) Gecko/20100101 Firefox/135.0" version="26.0.14">
  <diagram name="Page-1" id="OpJyO-5C_zh2wpmS6dyO">
    <mxGraphModel dx="1364" dy="795" grid="1" gridSize="10" guides="1" tooltips="1" connect="1" arrows="1" fold="1" page="1" pageScale="1" pageWidth="850" pageHeight="1100" math="0" shadow="0">
      <root>
        <mxCell id="0" />
        <mxCell id="1" parent="0" />
        <mxCell id="Y5OWJV1L_cYhaOPhjLGV-15" style="edgeStyle=orthogonalEdgeStyle;rounded=0;orthogonalLoop=1;jettySize=auto;html=1;entryX=0.5;entryY=0;entryDx=0;entryDy=0;" edge="1" parent="1" source="Y5OWJV1L_cYhaOPhjLGV-1" target="Y5OWJV1L_cYhaOPhjLGV-14">
          <mxGeometry relative="1" as="geometry" />
        </mxCell>
        <mxCell id="Y5OWJV1L_cYhaOPhjLGV-1" value="&lt;div&gt;Text&lt;/div&gt;&lt;div&gt;Prompts/Rules&lt;/div&gt;" style="rounded=0;whiteSpace=wrap;html=1;" vertex="1" parent="1">
          <mxGeometry x="140" y="190" width="120" height="60" as="geometry" />
        </mxCell>
        <mxCell id="Y5OWJV1L_cYhaOPhjLGV-6" style="edgeStyle=orthogonalEdgeStyle;rounded=0;orthogonalLoop=1;jettySize=auto;html=1;" edge="1" parent="1" source="Y5OWJV1L_cYhaOPhjLGV-2" target="Y5OWJV1L_cYhaOPhjLGV-7">
          <mxGeometry relative="1" as="geometry">
            <mxPoint x="350" y="290" as="targetPoint" />
          </mxGeometry>
        </mxCell>
        <mxCell id="Y5OWJV1L_cYhaOPhjLGV-2" value="Video" style="rounded=0;whiteSpace=wrap;html=1;" vertex="1" parent="1">
          <mxGeometry x="290" y="190" width="120" height="60" as="geometry" />
        </mxCell>
        <mxCell id="Y5OWJV1L_cYhaOPhjLGV-13" style="edgeStyle=orthogonalEdgeStyle;rounded=0;orthogonalLoop=1;jettySize=auto;html=1;entryX=0.5;entryY=0;entryDx=0;entryDy=0;" edge="1" parent="1" source="Y5OWJV1L_cYhaOPhjLGV-3" target="Y5OWJV1L_cYhaOPhjLGV-11">
          <mxGeometry relative="1" as="geometry" />
        </mxCell>
        <mxCell id="Y5OWJV1L_cYhaOPhjLGV-3" value="Audio" style="rounded=0;whiteSpace=wrap;html=1;" vertex="1" parent="1">
          <mxGeometry x="570" y="190" width="120" height="60" as="geometry" />
        </mxCell>
        <mxCell id="Y5OWJV1L_cYhaOPhjLGV-9" style="edgeStyle=orthogonalEdgeStyle;rounded=0;orthogonalLoop=1;jettySize=auto;html=1;entryX=0.5;entryY=0;entryDx=0;entryDy=0;" edge="1" parent="1" source="Y5OWJV1L_cYhaOPhjLGV-5" target="Y5OWJV1L_cYhaOPhjLGV-7">
          <mxGeometry relative="1" as="geometry" />
        </mxCell>
        <mxCell id="Y5OWJV1L_cYhaOPhjLGV-5" value="Image" style="rounded=0;whiteSpace=wrap;html=1;" vertex="1" parent="1">
          <mxGeometry x="425" y="190" width="120" height="60" as="geometry" />
        </mxCell>
        <mxCell id="Y5OWJV1L_cYhaOPhjLGV-19" style="edgeStyle=orthogonalEdgeStyle;rounded=0;orthogonalLoop=1;jettySize=auto;html=1;entryX=0.5;entryY=0;entryDx=0;entryDy=0;" edge="1" parent="1" source="Y5OWJV1L_cYhaOPhjLGV-7" target="Y5OWJV1L_cYhaOPhjLGV-18">
          <mxGeometry relative="1" as="geometry" />
        </mxCell>
        <mxCell id="Y5OWJV1L_cYhaOPhjLGV-7" value="Vision Language Model" style="rounded=0;whiteSpace=wrap;html=1;" vertex="1" parent="1">
          <mxGeometry x="330" y="400" width="150" height="60" as="geometry" />
        </mxCell>
        <mxCell id="Y5OWJV1L_cYhaOPhjLGV-10" value="&lt;div&gt;Frame&#39;s&lt;/div&gt;" style="text;html=1;align=center;verticalAlign=middle;resizable=0;points=[];autosize=1;strokeColor=none;fillColor=none;" vertex="1" parent="1">
          <mxGeometry x="275" y="278" width="70" height="30" as="geometry" />
        </mxCell>
        <mxCell id="Y5OWJV1L_cYhaOPhjLGV-11" value="Speech Language Model" style="rounded=0;whiteSpace=wrap;html=1;" vertex="1" parent="1">
          <mxGeometry x="570" y="400" width="120" height="60" as="geometry" />
        </mxCell>
        <mxCell id="Y5OWJV1L_cYhaOPhjLGV-14" value="Large Language Model" style="rounded=0;whiteSpace=wrap;html=1;" vertex="1" parent="1">
          <mxGeometry x="140" y="400" width="120" height="60" as="geometry" />
        </mxCell>
        <mxCell id="Y5OWJV1L_cYhaOPhjLGV-18" value="Decision Engine" style="rounded=0;whiteSpace=wrap;html=1;" vertex="1" parent="1">
          <mxGeometry x="345" y="560" width="120" height="60" as="geometry" />
        </mxCell>
        <mxCell id="Y5OWJV1L_cYhaOPhjLGV-23" value="" style="endArrow=none;html=1;rounded=0;" edge="1" parent="1">
          <mxGeometry width="50" height="50" relative="1" as="geometry">
            <mxPoint x="190" y="460" as="sourcePoint" />
            <mxPoint x="190" y="520" as="targetPoint" />
          </mxGeometry>
        </mxCell>
        <mxCell id="Y5OWJV1L_cYhaOPhjLGV-24" value="" style="endArrow=none;html=1;rounded=0;" edge="1" parent="1">
          <mxGeometry width="50" height="50" relative="1" as="geometry">
            <mxPoint x="627" y="461" as="sourcePoint" />
            <mxPoint x="627" y="521" as="targetPoint" />
          </mxGeometry>
        </mxCell>
        <mxCell id="Y5OWJV1L_cYhaOPhjLGV-26" value="" style="endArrow=none;html=1;rounded=0;" edge="1" parent="1">
          <mxGeometry width="50" height="50" relative="1" as="geometry">
            <mxPoint x="190" y="520" as="sourcePoint" />
            <mxPoint x="400" y="520" as="targetPoint" />
          </mxGeometry>
        </mxCell>
        <mxCell id="Y5OWJV1L_cYhaOPhjLGV-27" value="" style="endArrow=none;html=1;rounded=0;" edge="1" parent="1">
          <mxGeometry width="50" height="50" relative="1" as="geometry">
            <mxPoint x="390" y="520" as="sourcePoint" />
            <mxPoint x="630" y="520" as="targetPoint" />
          </mxGeometry>
        </mxCell>
      </root>
    </mxGraphModel>
  </diagram>
</mxfile>
